HIERARCHY
ROOT root
{
	OFFSET 0.000000 0.000000 0.000000
	CHANNELS 6 Xposition Yposition Zposition Zrotation Yrotation Xrotation
	JOINT lhip
	{
		OFFSET 0.058581 -0.082280 -0.017664
		CHANNELS 3 Zrotation Yrotation Xrotation
		JOINT lknee
		{
			OFFSET 0.043451 -0.386469 0.008037
			CHANNELS 3 Zrotation Yrotation Xrotation
			JOINT lankle
			{
				OFFSET -0.014790 -0.426874 -0.037428
				CHANNELS 3 Zrotation Yrotation Xrotation
				JOINT ltoe
				{
					OFFSET 0.041054 -0.060286 0.122042
					CHANNELS 3 Zrotation Yrotation Xrotation
					End Site
					{
						OFFSET 0.000000 0.000000 0.000000
					}
				}
			}
		}
	}
	JOINT rhip
	{
		OFFSET -0.060310 -0.090513 -0.013543
		CHANNELS 3 Zrotation Yrotation Xrotation
		JOINT rknee
		{
			OFFSET -0.043257 -0.383688 -0.004843
			CHANNELS 3 Zrotation Yrotation Xrotation
			JOINT rankle
			{
				OFFSET 0.019056 -0.420046 -0.034562
				CHANNELS 3 Zrotation Yrotation Xrotation
				JOINT rtoe
				{
					OFFSET -0.034840 -0.062106 0.130323
					CHANNELS 3 Zrotation Yrotation Xrotation
					End Site
					{
						OFFSET 0.000000 0.000000 0.000000
					}
				}
			}
		}
	}
	JOINT lowerback
	{
		OFFSET 0.004439 0.124404 -0.038385
		CHANNELS 3 Zrotation Yrotation Xrotation
		JOINT upperback
		{
			OFFSET 0.004488 0.137956 0.026820
			CHANNELS 3 Zrotation Yrotation Xrotation
			JOINT chest
			{
				OFFSET -0.002265 0.056032 0.002855
				CHANNELS 3 Zrotation Yrotation Xrotation
				JOINT lowerneck
				{
					OFFSET -0.013390 0.211636 -0.033468
					CHANNELS 3 Zrotation Yrotation Xrotation
					JOINT upperneck
					{
						OFFSET 0.010113 0.088937 0.050410
						CHANNELS 3 Zrotation Yrotation Xrotation
						End Site
						{
							OFFSET 0.000000 0.000000 0.000000
						}
					}
				}
				JOINT lclavicle
				{
					OFFSET 0.071702 0.114000 -0.018898
					CHANNELS 3 Zrotation Yrotation Xrotation
					JOINT lshoulder
					{
						OFFSET 0.122921 0.045205 -0.019046
						CHANNELS 3 Zrotation Yrotation Xrotation
						JOINT lelbow
						{
							OFFSET 0.255332 -0.015649 -0.022946
							CHANNELS 3 Zrotation Yrotation Xrotation
							JOINT lwrist
							{
								OFFSET 0.265709 0.012698 -0.007375
								CHANNELS 3 Zrotation Yrotation Xrotation
								End Site
								{
									OFFSET 0.000000 0.000000 0.000000
								}
							}
						}
					}
				}
				JOINT rclavicle
				{
					OFFSET -0.082954 0.112472 -0.023707
					CHANNELS 3 Zrotation Yrotation Xrotation
					JOINT rshoulder
					{
						OFFSET -0.113228 0.046853 -0.008472
						CHANNELS 3 Zrotation Yrotation Xrotation
						JOINT relbow
						{
							OFFSET -0.260127 -0.014369 -0.031269
							CHANNELS 3 Zrotation Yrotation Xrotation
							JOINT rwrist
							{
								OFFSET -0.269108 0.006794 -0.006027
								CHANNELS 3 Zrotation Yrotation Xrotation
								End Site
								{
									OFFSET 0.000000 0.000000 0.000000
								}
							}
						}
					}
				}
			}
		}
	}
}
MOTION
Frames: 16
Frame Time: 0.033333
-0.195554 0.641393 0.998287 -7.274044 0.365496 83.745297 2.033364 0.098087 -1.373193 -3.484616 0.874186 35.460166 -2.130391 11.628057 -15.976639 0.000000 -0.000000 0.000000 3.883690 -2.585286 5.372293 0.738190 4.114470 10.730136 0.279692 -2.153028 -14.355763 0.000000 -0.000000 0.000000 2.579322 2.754986 10.430693 2.361524 -3.171676 3.368574 0.303632 -0.785910 3.410957 1.340149 4.586489 -2.443730 -0.798435 3.246655 1.809469 -24.898837 1.958398 2.582231 -61.051076 -2.846862 8.962895 10.585150 -33.203961 6.006514 13.185704 -3.420545 -11.003084 27.241645 3.868091 3.108357 58.829880 6.318541 10.588255 -18.085297 23.099693 -6.828212 -6.196028 4.415088 -0.693960 
-0.201129 0.635773 0.998466 -7.868684 -0.122079 83.427723 2.057809 0.017880 -4.789246 -1.927781 4.135234 40.744504 -0.663408 11.961430 -16.529798 0.000000 -0.000000 0.000000 3.702029 -2.120297 6.361274 0.629101 3.960825 10.614346 -0.330004 -1.964607 -14.764321 0.000000 -0.000000 0.000000 2.329265 3.728191 10.942452 2.974400 -3.213954 3.350604 0.384231 -0.513137 3.442486 1.437041 4.792558 -2.800383 -0.975235 2.915366 2.650021 -26.131111 1.945423 4.345443 -60.761088 -3.383613 9.188423 11.178583 -34.292207 6.419469 13.674690 -3.380970 -12.387821 28.145185 4.873956 3.477533 59.440163 7.433639 12.572745 -19.962511 25.274638 -3.308841 -5.890163 4.291217 -2.086651 
-0.206299 0.626333 0.998719 -8.300804 -0.577313 82.905523 1.971253 -0.243075 -6.944422 -0.901986 6.079148 43.058374 -0.138774 12.549513 -16.046237 0.000000 -0.000000 0.000000 3.410415 -2.399126 7.762624 0.355307 4.119606 10.003659 -0.236029 -1.436700 -15.037592 0.000000 -0.000000 0.000000 2.507810 4.269557 11.619447 2.636590 -2.749136 3.059324 0.260050 -0.138240 3.344805 2.095713 3.911172 -2.272136 -0.741989 3.024930 3.079790 -25.540149 1.833029 3.962896 -61.491416 -2.828184 9.238590 10.662571 -34.300002 7.229263 14.467902 -3.556210 -11.839945 26.725513 6.279545 3.237378 59.807526 8.870760 13.657334 -15.573313 25.393740 -0.867481 -7.621534 5.871112 -0.628127 
-0.212694 0.614173 0.998619 -8.921034 -0.991720 82.233603 2.057288 -0.669340 -10.157574 -0.634290 7.749335 44.250085 -0.043128 12.487353 -15.305480 0.000000 -0.000000 0.000000 3.019852 -3.123491 10.433512 0.279946 5.181837 8.412636 -0.198951 -1.205836 -15.329174 0.000000 -0.000000 0.000000 2.763393 5.075347 12.072577 2.388621 -2.384824 3.015087 0.109265 0.497179 3.299229 2.707396 3.452876 -1.625198 -0.018233 2.644479 4.638996 -24.525755 1.929040 2.725822 -62.804726 -1.210459 10.320670 10.556028 -34.751392 6.744424 12.394916 -3.691463 -10.937173 27.067711 7.306608 3.492043 58.180710 10.058485 14.105761 -12.808214 30.014085 2.780649 -5.124937 7.240995 3.029946 
-0.216717 0.606635 0.997918 -9.336357 -1.222199 82.303302 2.164915 -1.170562 -11.987030 -1.161649 8.454650 43.181398 -0.123529 12.295578 -14.868682 0.000000 -0.000000 0.000000 2.785554 -3.227397 11.214457 0.290573 5.266489 7.879160 -0.409659 -0.628746 -15.567076 0.000000 -0.000000 0.000000 2.590085 5.842863 11.730912 2.652423 -2.453993 3.107512 0.141863 1.150838 3.154907 2.675941 2.920277 -0.496144 -0.009798 2.247951 4.122869 -24.901320 2.033382 2.309922 -62.742729 -0.652064 10.640408 9.969517 -34.949905 8.895707 12.855615 -3.102858 -12.405827 26.557339 7.069114 3.378098 58.418032 10.886403 14.950503 -12.534472 31.833711 6.106475 -4.479668 7.580867 1.282481 
-0.221789 0.595287 0.996609 -9.751726 -1.365567 81.977857 2.206757 -1.280007 -13.574204 -1.657307 8.838302 40.353995 -0.560807 11.517024 -14.364064 0.000000 -0.000000 0.000000 2.543323 -3.775914 12.938748 0.274474 6.042586 6.899172 -0.408057 -0.409949 -15.886728 0.000000 -0.000000 0.000000 2.960116 6.206534 12.264154 2.282069 -2.400911 2.941073 -0.013855 1.043545 3.320684 2.814476 3.350087 -1.092138 0.223370 2.386009 5.033785 -24.443074 2.176719 2.719154 -63.246970 0.068611 10.684232 10.266626 -35.955001 8.084335 12.336608 -3.421150 -12.393710 26.302750 7.718757 3.198163 57.950485 11.584962 15.250767 -11.158406 35.042282 7.825066 -4.233118 8.309415 1.796874 
-0.226227 0.583720 0.994920 -10.205882 -1.586813 82.164102 2.063411 -1.617972 -15.204059 -2.020508 9.730808 35.903555 -0.414132 11.527728 -13.345430 0.000000 -0.000000 0.000000 2.240438 -3.885804 13.779203 0.348146 6.170711 6.571791 -0.311913 0.033297 -16.378518 0.000000 -0.000000 0.000000 2.547879 7.290374 11.887400 2.694298 -2.411428 2.413216 0.615199 1.704361 3.854381 2.407504 3.261928 -0.198824 -0.437512 1.515282 4.660788 -24.355052 3.347810 1.489574 -63.749763 -0.912702 11.616799 7.644270 -33.777489 11.164990 14.165216 -3.950136 -13.243117 24.928349 6.406621 2.359590 58.249580 12.455175 17.304974 -11.233946 36.982222 9.337458 -5.236720 8.703831 -0.726655 
-0.231707 0.570318 0.991841 -10.386421 -1.464563 81.913951 1.995928 -0.995472 -16.099908 -2.030204 10.105484 30.800114 -0.948940 10.941626 -12.596733 0.000000 -0.000000 0.000000 2.261347 -4.416758 15.421560 0.374730 7.007616 5.880759 -0.434690 0.057200 -16.904743 0.000000 -0.000000 0.000000 3.297161 6.785698 12.354544 1.807704 -2.547957 3.071075 -0.095164 1.364486 3.354492 2.626441 3.640216 -0.915558 0.511599 2.356305 4.882428 -24.366021 2.377821 2.472992 -63.377593 1.301408 10.993826 10.210636 -36.310638 8.491751 11.389539 -3.629355 -12.437613 25.598925 7.882970 3.108927 57.471177 12.795338 15.804369 -10.680271 39.814993 9.589986 -3.251488 9.219670 0.878501 
-0.236378 0.556880 0.988735 -10.273601 -1.386299 82.150295 1.490481 -0.611335 -17.053791 -1.979506 10.478303 24.799985 -1.060064 10.630350 -11.818511 0.000000 -0.000000 0.000000 2.229398 -4.891067 16.350925 0.459787 7.241674 5.585113 -0.417324 0.230348 -17.457002 0.000000 -0.000000 0.000000 3.324399 6.882086 12.147954 1.761309 -2.829182 3.162776 -0.028738 1.354731 3.306934 2.276627 3.430939 -0.494460 0.424680 2.688537 3.981536 -24.980264 2.026229 2.536725 -63.001687 1.734762 10.564403 9.931820 -35.897384 8.704259 13.205808 -3.271640 -12.411755 25.148572 7.845222 3.016702 56.280890 13.057136 15.716071 -8.423097 41.673779 11.145710 -5.553621 9.223212 -0.619959 
-0.242167 0.538225 0.984211 -10.343813 -1.125680 82.417559 0.834941 -0.360406 -17.628615 -2.092665 11.003142 16.771524 -1.161090 10.915999 -9.978148 0.000000 -0.000000 0.000000 2.412090 -5.015695 17.777624 0.609776 7.669118 4.990083 -0.613132 0.081266 -18.118443 0.000000 -0.000000 0.000000 3.421234 6.884584 11.835349 1.482230 -3.103425 3.577418 0.310859 1.466139 2.921068 1.657102 3.444426 0.319381 0.523424 3.067789 3.004843 -25.566303 1.145021 2.767936 -62.817677 2.937076 9.778601 10.606683 -35.850095 8.429820 11.287259 -3.046442 -11.985930 24.752073 7.752012 3.477520 55.928377 12.869627 15.013211 -9.578009 42.919487 10.971765 -3.908634 9.153565 -1.138724 
-0.246906 0.521820 0.979994 -10.400842 -0.822451 82.466820 0.080709 0.289555 -17.848921 -2.151884 11.235444 11.325674 -1.256342 10.421974 -8.890735 0.000000 -0.000000 0.000000 2.402421 -5.663986 19.215365 0.669289 8.019843 4.578106 -0.656701 0.694857 -18.690590 0.000000 -0.000000 0.000000 3.510073 6.816194 11.901603 1.481876 -3.199521 3.461587 0.199845 1.730234 2.846929 1.620734 3.594817 0.637495 0.660004 2.993750 3.206275 -25.336533 1.108903 2.033324 -63.021209 3.266778 9.912484 10.312976 -34.729499 8.931852 11.281052 -3.112923 -11.861706 24.762094 7.380696 3.377722 55.537032 12.309722 14.156618 -9.599201 42.663698 10.957100 -4.118869 9.344443 -1.009878 
-0.251667 0.503961 0.975231 -10.394463 -0.383116 82.730674 -0.433899 0.535087 -18.368002 -2.556439 11.567646 7.225052 -1.122611 10.343743 -8.321491 0.000000 -0.000000 0.000000 2.629754 -6.045178 20.682495 0.725220 8.819838 3.874426 -0.680434 0.691550 -19.000730 0.000000 -0.000000 0.000000 3.685313 6.743827 11.590495 1.333645 -3.356796 3.376013 0.292172 1.748482 2.912578 1.411852 3.961704 0.757886 0.911021 3.059157 3.398413 -25.500925 1.207764 1.918119 -62.959163 3.350644 10.202120 10.844809 -34.258299 7.966738 10.506958 -3.114753 -11.009344 25.152828 6.988330 3.805419 54.375857 11.698951 13.863375 -9.888730 42.225923 10.854912 -3.618858 8.758632 -1.420180 
-0.256610 0.484587 0.970325 -10.555076 0.025559 83.023655 -0.903785 0.362697 -18.967738 -2.467445 12.333626 4.996183 -0.930602 10.298944 -7.326692 0.000000 -0.000000 0.000000 2.727947 -6.244788 22.164544 0.898617 9.314136 3.283051 -0.511549 1.190934 -19.133799 0.000000 -0.000000 0.000000 3.798743 6.755180 11.183773 1.192746 -3.495338 3.446641 0.308468 1.970237 2.834843 1.399934 3.962280 1.214922 0.905154 3.297711 3.144234 -25.457781 1.459418 1.166048 -62.816225 3.645194 10.319098 10.809738 -33.864933 7.709405 8.675840 -3.539067 -10.094395 24.510104 6.502992 3.794309 55.337474 11.288345 13.684567 -11.323567 39.319178 8.772227 -1.881177 9.337519 0.625973 
-0.261388 0.463104 0.964332 -11.148650 0.303950 83.537789 -1.279169 -0.070242 -19.693946 -2.166686 13.588626 4.182188 -1.096070 11.031907 -5.896460 0.000000 -0.000000 0.000000 2.606645 -6.090912 23.293760 1.156947 9.946077 2.921756 0.313451 1.363398 -18.664943 0.000000 -0.000000 0.000000 3.817335 7.327317 10.400332 1.140278 -3.696551 3.616976 0.429040 1.680029 3.106017 0.707818 3.965645 0.925511 0.793502 4.085243 2.505668 -26.138063 1.458688 2.672775 -62.171306 2.754796 9.737421 11.028089 -34.333206 7.067576 9.791016 -3.263651 -10.568764 24.090239 6.448328 4.098403 54.874882 10.508322 13.742436 -11.131545 37.399225 8.178783 -2.909314 8.506598 0.417283 
-0.266504 0.440329 0.960260 -11.842890 0.686023 83.886699 -1.202093 -0.590158 -20.200626 -2.241525 14.586087 5.120462 -0.766828 11.842955 -5.477237 0.000000 -0.000000 0.000000 2.577292 -6.061785 24.485356 1.294935 10.567895 3.059443 0.806842 1.671531 -18.233097 0.000000 -0.000000 0.000000 3.698494 7.623676 10.003125 1.136624 -3.647218 3.527428 0.513172 1.808135 3.143633 0.490102 4.119282 0.907802 0.837683 4.558780 2.468026 -26.149345 1.959306 2.176953 -62.063169 2.781841 9.506225 10.781915 -34.014741 6.979018 8.758279 -3.487580 -9.808511 24.057973 5.757372 4.276147 54.811954 9.470358 13.321576 -11.376121 34.642178 7.333105 -1.617408 8.265272 1.762749 
-0.272064 0.414572 0.956832 -13.011569 0.995793 84.086213 -0.926847 -1.077903 -19.917176 -2.576237 14.600253 6.159850 -0.219426 12.456181 -5.444912 0.000000 -0.000000 0.000000 2.212669 -6.169861 25.784039 1.287231 11.740273 3.513921 1.376304 2.213450 -17.455059 0.000000 -0.000000 0.000000 3.391098 8.120134 9.650640 1.193056 -3.599060 3.584268 0.651563 1.757515 3.242296 0.051864 4.608183 0.575838 0.775863 5.122739 2.024822 -26.381133 2.781109 2.154342 -61.756779 2.708847 9.641894 10.842613 -34.265126 6.437170 9.039812 -3.318825 -9.744159 24.850613 4.892225 4.670959 53.265555 7.607260 13.277949 -10.830971 33.912553 7.149532 -1.430196 6.847605 2.002314 
